<svg width="30" height="30" viewBox="0 0 30 30" fill="none" xmlns="http://www.w3.org/2000/svg">
<path d="M26.1837 10.3816C26.1711 9.43484 25.9939 8.49753 25.66 7.61156C25.3704 6.86425 24.9282 6.18556 24.3615 5.61885C23.7948 5.05214 23.1161 4.60988 22.3687 4.32031C21.4942 3.99201 20.5702 3.81449 19.6362 3.79531C18.4337 3.74156 18.0525 3.72656 15 3.72656C11.9475 3.72656 11.5562 3.72656 10.3625 3.79531C9.42895 3.81463 8.50543 3.99215 7.63125 4.32031C6.88382 4.60967 6.20502 5.05187 5.63829 5.6186C5.07155 6.18534 4.62936 6.86414 4.34 7.61156C4.01104 8.48548 3.8339 9.4092 3.81625 10.3428C3.7625 11.5466 3.74625 11.9278 3.74625 14.9803C3.74625 18.0328 3.74625 18.4228 3.81625 19.6178C3.835 20.5528 4.01125 21.4753 4.34 22.3516C4.62984 23.0988 5.07237 23.7773 5.63929 24.3438C6.20622 24.9103 6.88508 25.3523 7.6325 25.6416C8.50429 25.9831 9.42796 26.1733 10.3637 26.2041C11.5675 26.2578 11.9487 26.2741 15.0012 26.2741C18.0537 26.2741 18.445 26.2741 19.6387 26.2041C20.5727 26.1857 21.4967 26.0086 22.3712 25.6803C23.1184 25.3904 23.7969 24.948 24.3635 24.3814C24.9302 23.8147 25.3726 23.1362 25.6625 22.3891C25.9912 21.5141 26.1675 20.5916 26.1862 19.6553C26.24 18.4528 26.2562 18.0716 26.2562 15.0178C26.2537 11.9653 26.2537 11.5778 26.1837 10.3816ZM14.9925 20.7528C11.8 20.7528 9.21375 18.1666 9.21375 14.9741C9.21375 11.7816 11.8 9.19531 14.9925 9.19531C16.5251 9.19531 17.995 9.80414 19.0787 10.8879C20.1624 11.9716 20.7712 13.4414 20.7712 14.9741C20.7712 16.5067 20.1624 17.9765 19.0787 19.0603C17.995 20.144 16.5251 20.7528 14.9925 20.7528ZM21.0012 10.3291C20.8242 10.3292 20.6489 10.2945 20.4854 10.2268C20.3218 10.1592 20.1732 10.0599 20.0481 9.93476C19.9229 9.8096 19.8236 9.66098 19.756 9.49742C19.6883 9.33386 19.6536 9.15857 19.6537 8.98156C19.6537 8.80469 19.6886 8.62955 19.7563 8.46614C19.824 8.30273 19.9232 8.15425 20.0482 8.02918C20.1733 7.90411 20.3218 7.8049 20.4852 7.73721C20.6486 7.66953 20.8237 7.63469 21.0006 7.63469C21.1775 7.63469 21.3526 7.66953 21.516 7.73721C21.6795 7.8049 21.8279 7.90411 21.953 8.02918C22.0781 8.15425 22.1773 8.30273 22.245 8.46614C22.3127 8.62955 22.3475 8.80469 22.3475 8.98156C22.3475 9.72656 21.745 10.3291 21.0012 10.3291Z" fill="white"/>
<path d="M14.9925 18.7272C17.0656 18.7272 18.7462 17.0466 18.7462 14.9735C18.7462 12.9003 17.0656 11.2197 14.9925 11.2197C12.9194 11.2197 11.2387 12.9003 11.2387 14.9735C11.2387 17.0466 12.9194 18.7272 14.9925 18.7272Z" fill="white"/>
</svg>
