<svg width="100" height="100" viewBox="0 0 100 100" fill="red" xmlns="http://www.w3.org/2000/svg">
<g clipPath="url(#clip0_201_462)">
<path d="M31.4731 68.2607H31.1187C30.9023 68.1842 30.7143 68.0437 30.5798 67.8577C30.4453 67.6717 30.3706 67.4492 30.3657 67.2197V58.7812H25.8031C25.212 58.7814 24.6268 58.6632 24.082 58.4337C23.5372 58.2042 23.0439 57.868 22.6311 57.4449C22.2183 57.0217 21.8943 56.5202 21.6783 55.97C21.4623 55.4197 21.3587 54.8317 21.3735 54.2408V32.3139C21.3587 31.7229 21.4623 31.1349 21.6783 30.5847C21.8943 30.0344 22.2183 29.5329 22.6311 29.1098C23.0439 28.6866 23.5372 28.3504 24.082 28.1209C24.6268 27.8914 25.212 27.7733 25.8031 27.7734H61.6171C62.2133 27.7734 62.8038 27.8909 63.3546 28.1191C63.9055 28.3472 64.406 28.6817 64.8276 29.1033C65.2493 29.5249 65.5837 30.0254 65.8119 30.5763C66.0401 31.1272 66.1575 31.7176 66.1575 32.3139V54.2408C66.1575 55.445 65.6791 56.5998 64.8276 57.4513C63.9762 58.3028 62.8213 58.7812 61.6171 58.7812H39.2694L32.3591 67.8177C32.2571 67.9566 32.1236 68.0692 31.9696 68.1462C31.8155 68.2232 31.6453 68.2625 31.4731 68.2607ZM25.8031 29.9883C25.5027 29.9879 25.2054 30.0486 24.9292 30.1668C24.653 30.285 24.4037 30.4581 24.1965 30.6756C23.9893 30.8932 23.8286 31.1506 23.724 31.4322C23.6194 31.7139 23.5733 32.0138 23.5883 32.3139V54.2408C23.5876 54.8388 23.8174 55.4142 24.2298 55.8473C24.6423 56.2803 25.2057 56.5379 25.8031 56.5664H31.4731C31.7668 56.5664 32.0485 56.683 32.2562 56.8907C32.4639 57.0984 32.5805 57.3801 32.5805 57.6738V63.8753L37.8297 56.9872C37.9383 56.8573 38.0737 56.7524 38.2266 56.6798C38.3795 56.6072 38.5464 56.5685 38.7156 56.5664H61.6171C62.2321 56.5606 62.8203 56.3137 63.2551 55.8788C63.69 55.4439 63.9369 54.8558 63.9427 54.2408V32.3139C63.9586 32.0043 63.9093 31.6948 63.7981 31.4054C63.6868 31.1161 63.5161 30.8533 63.2969 30.6341C63.0777 30.4149 62.8149 30.2441 62.5255 30.1329C62.2362 30.0216 61.9267 29.9724 61.6171 29.9883H25.8031Z" fill="#464646"/>
<path d="M71.1852 75.7919C71.0186 75.7928 70.854 75.7553 70.7042 75.6823C70.5544 75.6093 70.4235 75.5028 70.3214 75.3711L64.5186 68.0399H46.5119C45.4949 68.0346 44.5198 67.6343 43.7925 66.9235C43.0652 66.2127 42.6425 65.247 42.6138 64.2304V46.0909C42.602 45.5705 42.694 45.053 42.8843 44.5686C43.0747 44.0841 43.3596 43.6425 43.7225 43.2693C44.0853 42.8961 44.5189 42.5989 44.9978 42.3951C45.4767 42.1913 45.9914 42.0848 46.5119 42.082H75.9693C77.011 42.082 78.0105 42.4943 78.7492 43.2289C79.4879 43.9635 79.9058 44.9605 79.9117 46.0023V64.2304C79.9058 65.2722 79.4879 66.2693 78.7492 67.0038C78.0105 67.7384 77.011 68.1507 75.9693 68.1507H72.2926V74.7952C72.2878 75.0247 72.2131 75.2472 72.0785 75.4332C71.944 75.6192 71.756 75.7597 71.5396 75.8362C71.4198 75.8429 71.2997 75.8279 71.1852 75.7919ZM46.5119 44.2969C46.0596 44.2969 45.6258 44.4766 45.306 44.7964C44.9862 45.1162 44.8065 45.55 44.8065 46.0023V64.2304C44.8035 64.4552 44.8456 64.6783 44.9302 64.8866C45.0149 65.0948 45.1404 65.284 45.2994 65.443C45.4583 65.6019 45.6475 65.7274 45.8558 65.8121C46.064 65.8968 46.2871 65.9388 46.5119 65.9359H65.028C65.194 65.9382 65.3575 65.9771 65.5068 66.0498C65.6561 66.1226 65.7876 66.2273 65.8918 66.3567L70.0557 71.6058V66.9325C70.0557 66.6388 70.1723 66.3571 70.38 66.1495C70.5877 65.9418 70.8694 65.8251 71.1631 65.8251H75.9693C76.1951 65.828 76.4192 65.7861 76.6287 65.7017C76.8382 65.6173 77.0288 65.4922 77.1895 65.3335C77.3503 65.1748 77.4779 64.9858 77.565 64.7775C77.652 64.5691 77.6969 64.3455 77.6969 64.1197V46.0909C77.7058 45.8585 77.6677 45.6267 77.5849 45.4094C77.5021 45.192 77.3763 44.9936 77.215 44.8261C77.0536 44.6586 76.8602 44.5254 76.6461 44.4344C76.4321 44.3435 76.2018 44.2967 75.9693 44.2969H46.5119Z" fill="#464646"/>
<path d="M49.9891 99.9997C40.0979 99.9997 30.4287 97.0666 22.2045 91.5713C13.9802 86.076 7.57014 78.2654 3.78492 69.127C-0.00030376 59.9887 -0.99069 49.9332 0.938999 40.232C2.86869 30.5308 7.63178 21.6196 14.626 14.6255C21.6201 7.63129 30.5312 2.8682 40.2324 0.93851C49.9336 -0.991178 59.9892 -0.000792041 69.1275 3.78443C78.2659 7.56965 86.0765 13.9797 91.5718 22.204C97.0671 30.4282 100 40.0974 100 49.9886C99.9885 63.2488 94.7157 75.9625 85.3393 85.3388C75.963 94.7152 63.2493 99.988 49.9891 99.9997ZM49.9891 2.21455C40.535 2.21455 31.2932 5.01831 23.4327 10.2712C15.5721 15.5241 9.44598 22.9902 5.82905 31.7251C2.21211 40.46 1.26688 50.0714 3.11291 59.3435C4.95893 68.6157 9.51328 77.1321 16.1999 83.8157C22.8866 90.4992 31.4051 95.0496 40.6781 96.8913C49.9511 98.7331 59.5621 97.7834 68.2953 94.1624C77.0285 90.5414 84.4918 84.4118 89.741 76.5488C94.9903 68.6859 97.7897 59.4428 97.7854 49.9886C97.7678 37.3197 92.7258 25.1751 83.7654 16.2189C74.805 7.26265 62.658 2.22627 49.9891 2.21455Z" fill="#464646"/>
</g>
<defs>
<clipPath id="clip0_201_462">
<rect width="100" height="100" fill="white"/>
</clipPath>
</defs>
</svg>
