<svg width="100" height="100" viewBox="0 0 100 100" fill="none" xmlns="http://www.w3.org/2000/svg">
<g clipPath="url(#clip0_201_483)">
<path d="M66.4454 71.1183C66.1982 71.1232 65.9565 71.0452 65.7588 70.8968L60.7754 66.9987L62.1264 65.249L66.246 68.4605L71.9825 60.8857L73.7543 62.2368L67.3313 70.6975C67.1428 70.9282 66.8736 71.0787 66.5783 71.1183H66.4454Z" fill="#464646"/>
<path d="M67.1763 77.2315C64.9116 77.2315 62.6977 76.56 60.8146 75.3017C58.9316 74.0435 57.4639 72.2551 56.5972 70.1628C55.7305 68.0705 55.5038 65.7681 55.9456 63.5469C56.3874 61.3257 57.478 59.2853 59.0794 57.6839C60.6808 56.0825 62.7212 54.9919 64.9424 54.5501C67.1636 54.1083 69.466 54.335 71.5583 55.2017C73.6507 56.0684 75.439 57.5361 76.6972 59.4191C77.9555 61.3022 78.627 63.5161 78.627 65.7808C78.627 68.8177 77.4206 71.7303 75.2732 73.8777C73.1258 76.0251 70.2132 77.2315 67.1763 77.2315ZM67.1763 56.5671C65.3487 56.5671 63.5621 57.1093 62.0428 58.1252C60.5235 59.141 59.3398 60.5847 58.6414 62.2737C57.943 63.9626 57.7614 65.8208 58.1195 67.6129C58.4777 69.4051 59.3595 71.0508 60.6534 72.3415C61.9473 73.6323 63.5951 74.5102 65.3881 74.8641C67.1811 75.2179 69.0389 75.0319 70.7261 74.3294C72.4133 73.627 73.8543 72.4398 74.8664 70.918C75.8786 69.3963 76.4166 67.6084 76.4122 65.7808C76.4063 63.3351 75.4307 60.9916 73.6992 59.2644C71.9678 57.5371 69.622 56.5671 67.1763 56.5671Z" fill="#464646"/>
<path d="M70.8749 52.8456H68.6601V24.7393H58.5161V22.5244H69.8561C70.148 22.5301 70.4264 22.6486 70.6329 22.855C70.8393 23.0615 70.9578 23.3399 70.9635 23.6318L70.8749 52.8456Z" fill="#464646"/>
<path d="M56.855 74.6839H30.144C29.8503 74.6839 29.5687 74.5672 29.361 74.3595C29.1533 74.1518 29.0366 73.8702 29.0366 73.5765V23.6318C29.0423 23.3399 29.1608 23.0615 29.3673 22.855C29.5737 22.6486 29.8521 22.5301 30.144 22.5244H41.4176V24.7393H31.2515V72.469H56.855V74.6839Z" fill="#464646"/>
<path d="M55.5926 28.6151H44.4076C43.3327 28.6151 42.3018 28.1881 41.5416 27.428C40.7815 26.6678 40.3545 25.6369 40.3545 24.5619C40.3545 23.487 40.7815 22.456 41.5416 21.6959C42.3018 20.9358 43.3327 20.5088 44.4076 20.5088H55.5926C56.6676 20.5088 57.6985 20.9358 58.4586 21.6959C59.2187 22.456 59.6457 23.487 59.6457 24.5619C59.6457 25.6369 59.2187 26.6678 58.4586 27.428C57.6985 28.1881 56.6676 28.6151 55.5926 28.6151ZM44.4076 22.7236C43.9201 22.7236 43.4525 22.9173 43.1078 23.2621C42.763 23.6068 42.5693 24.0744 42.5693 24.5619C42.5693 25.0495 42.763 25.5171 43.1078 25.8618C43.4525 26.2066 43.9201 26.4003 44.4076 26.4003H55.5926C56.0801 26.4003 56.5477 26.2066 56.8925 25.8618C57.2372 25.5171 57.4309 25.0495 57.4309 24.5619C57.4309 24.0744 57.2372 23.6068 56.8925 23.2621C56.5477 22.9173 56.0801 22.7236 55.5926 22.7236H44.4076Z" fill="#464646"/>
<path d="M38.782 40.8194C38.5142 40.8221 38.2545 40.7276 38.0511 40.5536L35.0832 37.9179C34.8629 37.7212 34.7298 37.4449 34.7132 37.15C34.6966 36.8551 34.7978 36.5657 34.9946 36.3454C35.1914 36.1251 35.4676 35.992 35.7625 35.9754C36.0574 35.9588 36.3468 36.06 36.5671 36.2568L38.5605 38.0287L41.5062 33.599C41.5732 33.4554 41.6703 33.3278 41.7909 33.2249C41.9115 33.1221 42.0527 33.0463 42.2051 33.0027C42.3575 32.9591 42.5174 32.9487 42.6742 32.9722C42.8309 32.9958 42.9808 33.0527 43.1136 33.1391C43.2465 33.2256 43.3592 33.3395 43.4443 33.4733C43.5293 33.607 43.5846 33.7575 43.6065 33.9144C43.6284 34.0714 43.6163 34.2313 43.5711 34.3832C43.5259 34.5351 43.4487 34.6755 43.3445 34.795L39.7122 40.3986C39.6241 40.5294 39.5097 40.6403 39.3762 40.7243C39.2427 40.8082 39.0931 40.8632 38.937 40.8858L38.782 40.8194Z" fill="#464646"/>
<path d="M38.782 48.7265C38.5118 48.721 38.2524 48.6189 38.0511 48.4385L35.0832 45.825C34.8789 45.6143 34.7646 45.3323 34.7646 45.0388C34.7646 44.7452 34.8789 44.4632 35.0832 44.2525C35.1862 44.1487 35.3087 44.0663 35.4436 44.0101C35.5786 43.9539 35.7233 43.9249 35.8695 43.9249C36.0157 43.9249 36.1604 43.9539 36.2954 44.0101C36.4303 44.0663 36.5528 44.1487 36.6558 44.2525L38.6491 46.0244L41.5949 41.5947C41.6677 41.4589 41.7681 41.3398 41.8895 41.245C42.011 41.1503 42.151 41.0819 42.3004 41.0442C42.4498 41.0066 42.6054 41.0006 42.7573 41.0266C42.9092 41.0525 43.054 41.1099 43.1825 41.195C43.3109 41.2801 43.4202 41.3911 43.5033 41.5209C43.5864 41.6506 43.6415 41.7963 43.6651 41.9486C43.6887 42.1008 43.6803 42.2564 43.6403 42.4052C43.6004 42.554 43.5298 42.6929 43.4332 42.8129L39.8008 48.3942C39.7128 48.5251 39.5983 48.636 39.4648 48.7199C39.3313 48.8039 39.1817 48.8589 39.0256 48.8815L38.782 48.7265Z" fill="#464646"/>
<path d="M38.782 56.4342C38.5118 56.4287 38.2524 56.3266 38.0511 56.1462L35.0832 53.5327C34.8789 53.322 34.7646 53.04 34.7646 52.7465C34.7646 52.4529 34.8789 52.1709 35.0832 51.9602C35.1862 51.8564 35.3087 51.774 35.4436 51.7178C35.5786 51.6616 35.7233 51.6326 35.8695 51.6326C36.0157 51.6326 36.1604 51.6616 36.2954 51.7178C36.4303 51.774 36.5528 51.8564 36.6558 51.9602L38.6491 53.7321L41.5949 49.3024C41.7679 49.0875 42.015 48.945 42.2877 48.9027C42.5604 48.8605 42.839 48.9215 43.069 49.0739C43.299 49.2264 43.4638 49.4591 43.5312 49.7267C43.5986 49.9943 43.5636 50.2774 43.4332 50.5205L39.8008 56.1019C39.7128 56.2328 39.5983 56.3437 39.4648 56.4276C39.3313 56.5116 39.1817 56.5666 39.0256 56.5892L38.782 56.4342Z" fill="#464646"/>
<path d="M38.782 64.2305C38.6471 64.2333 38.5131 64.2093 38.3876 64.1598C38.2622 64.1104 38.1478 64.0366 38.0511 63.9426L35.0832 61.3291C34.8629 61.1323 34.7298 60.8561 34.7132 60.5612C34.6966 60.2663 34.7978 59.9768 34.9946 59.7565C35.1914 59.5363 35.4676 59.4032 35.7625 59.3866C36.0574 59.37 36.3468 59.4712 36.5671 59.668L38.5605 61.4398L41.5062 57.0101C41.5828 56.8858 41.6837 56.7782 41.8028 56.6938C41.922 56.6094 42.057 56.5499 42.1996 56.5189C42.3423 56.4879 42.4898 56.486 42.6333 56.5133C42.7767 56.5406 42.9131 56.5966 43.0344 56.6779C43.2772 56.8403 43.446 57.092 43.5041 57.3782C43.5621 57.6644 43.5048 57.962 43.3445 58.2062L39.7122 63.7876C39.6253 63.9216 39.5116 64.0361 39.3781 64.1238C39.2447 64.2114 39.0945 64.2704 38.937 64.297L38.782 64.2305Z" fill="#464646"/>
<path d="M62.3256 38.0283H47.6855C47.3918 38.0283 47.1102 37.9116 46.9025 37.704C46.6948 37.4963 46.5781 37.2146 46.5781 36.9209C46.5781 36.6272 46.6948 36.3455 46.9025 36.1378C47.1102 35.9301 47.3918 35.8135 47.6855 35.8135H62.3256C62.6176 35.8191 62.896 35.9376 63.1024 36.1441C63.3089 36.3506 63.4274 36.629 63.433 36.9209C63.433 37.2146 63.3164 37.4963 63.1087 37.704C62.901 37.9116 62.6193 38.0283 62.3256 38.0283Z" fill="#464646"/>
<path d="M62.3256 45.8252H47.6855C47.3918 45.8252 47.1102 45.7085 46.9025 45.5008C46.6948 45.2932 46.5781 45.0115 46.5781 44.7178C46.5781 44.4241 46.6948 44.1424 46.9025 43.9347C47.1102 43.727 47.3918 43.6104 47.6855 43.6104H62.3256C62.6176 43.616 62.896 43.7345 63.1024 43.941C63.3089 44.1474 63.4274 44.4258 63.433 44.7178C63.433 45.0115 63.3164 45.2932 63.1087 45.5008C62.901 45.7085 62.6193 45.8252 62.3256 45.8252Z" fill="#464646"/>
<path d="M62.3256 54.4629H47.6855C47.3918 54.4629 47.1102 54.3462 46.9025 54.1385C46.6948 53.9308 46.5781 53.6492 46.5781 53.3555C46.5781 53.0618 46.6948 52.7801 46.9025 52.5724C47.1102 52.3647 47.3918 52.248 47.6855 52.248H62.3256C62.6193 52.248 62.901 52.3647 63.1087 52.5724C63.3164 52.7801 63.433 53.0618 63.433 53.3555C63.4274 53.6474 63.3089 53.9258 63.1024 54.1323C62.896 54.3387 62.6176 54.4572 62.3256 54.4629Z" fill="#464646"/>
<path d="M57.5859 62.6572H47.6191C47.3254 62.6572 47.0438 62.5405 46.8361 62.3329C46.6284 62.1252 46.5117 61.8435 46.5117 61.5498C46.5117 61.2561 46.6284 60.9744 46.8361 60.7667C47.0438 60.5591 47.3254 60.4424 47.6191 60.4424H57.5859C57.8796 60.4424 58.1613 60.5591 58.369 60.7667C58.5767 60.9744 58.6933 61.2561 58.6933 61.5498C58.6933 61.8435 58.5767 62.1252 58.369 62.3329C58.1613 62.5405 57.8796 62.6572 57.5859 62.6572Z" fill="#464646"/>
<path d="M49.9891 99.9997C40.0979 99.9997 30.4287 97.0666 22.2045 91.5713C13.9802 86.076 7.57014 78.2654 3.78492 69.127C-0.00030376 59.9887 -0.99069 49.9332 0.938999 40.232C2.86869 30.5308 7.63178 21.6196 14.626 14.6255C21.6201 7.63129 30.5312 2.8682 40.2324 0.93851C49.9336 -0.991178 59.9892 -0.000792041 69.1275 3.78443C78.2659 7.56965 86.0765 13.9797 91.5718 22.204C97.0671 30.4282 100 40.0974 100 49.9886C99.9885 63.2488 94.7157 75.9625 85.3393 85.3388C75.963 94.7152 63.2493 99.988 49.9891 99.9997ZM49.9891 2.21455C40.535 2.21455 31.2932 5.01831 23.4327 10.2712C15.5721 15.5241 9.44598 22.9902 5.82905 31.7251C2.21211 40.46 1.26688 50.0714 3.11291 59.3435C4.95893 68.6157 9.51328 77.1321 16.1999 83.8157C22.8866 90.4992 31.4051 95.0496 40.6781 96.8913C49.9511 98.7331 59.5621 97.7834 68.2953 94.1624C77.0285 90.5414 84.4918 84.4118 89.741 76.5488C94.9903 68.6859 97.7897 59.4428 97.7854 49.9886C97.7678 37.3197 92.7258 25.1751 83.7654 16.2189C74.805 7.26265 62.658 2.22627 49.9891 2.21455Z" fill="#464646"/>
</g>
<defs>
<clipPath id="clip0_201_483">
<rect width="100" height="100" fill="white"/>
</clipPath>
</defs>
</svg>
