<svg width="1363" height="395" viewBox="0 0 1363 395" fill="none" xmlns="http://www.w3.org/2000/svg">
<path d="M197.5 395C306.575 395 395 306.575 395 197.5C395 88.4249 306.575 0 197.5 0C88.4249 0 0 88.4249 0 197.5C0 306.575 88.4249 395 197.5 395ZM303.398 307.475H146.616V274.912H303.398V307.475ZM303.398 211.161H205.707V178.597H303.398V211.161ZM97.2674 82.9712H303.398V115.482H129.831V162.977H97.3204V82.9712H97.2674ZM97.2674 178.809H188.922V211.32H129.831V307.263H97.3204V178.809H97.2674Z" fill="#A3195B"/>
<path d="M466 264.799V130.699H562.5V155.099H491.3V191.699H558.6V215.099H491.3V264.799H466Z" fill="#A3195B"/>
<path d="M680.1 264.8H579.6C579.6 220.1 579.6 175.2 579.6 130.5H680.1V155.1H604.7V186H677.4V209.6H604.7V239.9H680.1V264.8Z" fill="#A3195B"/>
<path d="M763.8 130.5V241.4H832.9V264.8H738.5V130.5H763.8Z" fill="#A3195B"/>
<path d="M950.8 264.8H850.3C850.3 220.1 850.3 175.2 850.3 130.5H950.8V155.1H875.4V186H948.1V209.6H875.4V239.9H950.8V264.8Z" fill="#A3195B"/>
<path d="M1065.7 239.5H995.5L984 264.8H956.6L1016.8 130.5H1044.4L1104.6 264.8H1077L1065.7 239.5ZM1030.6 158.7L1005.7 215.9H1055.6L1030.6 158.7Z" fill="#A3195B"/>
<path d="M1238.4 196.5C1239 230.5 1218.3 264.8 1171.2 264.8C1154.7 264.8 1134.9 264.8 1118.4 264.8V130.5C1134.9 130.5 1154.7 130.5 1171.2 130.5C1217.3 130.5 1237.8 163.4 1238.4 196.5ZM1143.6 240.5H1171.2C1201.7 240.5 1213.8 218.2 1213.2 196.4C1212.6 175.5 1200.3 154.6 1171.2 154.6H1143.6V240.5Z" fill="#A3195B"/>
<path d="M1338 163C1333.4 155.3 1320.7 148 1306.2 148C1287.4 148 1278.4 155.9 1278.4 165.8C1278.4 177.5 1292.2 180.8 1308.3 182.7C1336.3 186.2 1362.4 193.4 1362.4 225.5C1362.4 255.4 1335.9 268.3 1306 268.3C1278.6 268.3 1257.5 259.9 1247.5 235.3L1268.6 224.4C1274.5 239.2 1290.1 245.7 1306.4 245.7C1322.3 245.7 1337.3 240.1 1337.3 225.6C1337.3 212.9 1324.1 207.8 1306.2 205.8C1278.8 202.5 1253.4 195.2 1253.4 165.1C1253.4 137.5 1280.6 126.2 1305.4 126C1326.3 126 1348 131.9 1358.2 152.7L1338 163Z" fill="#A3195B"/>
</svg>
