<svg width="153" height="109" viewBox="0 0 153 109" fill="none" xmlns="http://www.w3.org/2000/svg">
<g clipPath="url(#clip0_201_192)">
<path d="M76.7867 29.5L51.0291 58.6155H56.4345V79.5H95.5008V58.2879H101.971L76.7867 29.5ZM80.636 77.4525H72.446V64.5328H80.636V77.4525ZM93.4533 56.2404V77.4525H82.6835V62.4853H70.3985V77.4525H58.482V56.5885H55.5745L76.7867 32.5917L97.4664 56.2404H93.4533Z" fill="#A3195B"/>
<path d="M76.5 45.5117C75.4026 45.5117 74.3298 45.8371 73.4173 46.4468C72.5048 47.0565 71.7936 47.9231 71.3736 48.937C70.9537 49.9509 70.8438 51.0666 71.0579 52.143C71.272 53.2193 71.8004 54.208 72.5765 54.984C73.3525 55.76 74.3411 56.2885 75.4175 56.5026C76.4938 56.7167 77.6095 56.6068 78.6234 56.1868C79.6373 55.7668 80.5039 55.0556 81.1136 54.1432C81.7233 53.2307 82.0487 52.1579 82.0487 51.0604C82.0487 49.5888 81.4641 48.1775 80.4235 47.1369C79.3829 46.0963 77.9716 45.5117 76.5 45.5117ZM76.5 54.5617C75.8075 54.5617 75.1306 54.3563 74.5548 53.9716C73.979 53.5869 73.5303 53.0401 73.2653 52.4003C73.0003 51.7605 72.9309 51.0566 73.066 50.3774C73.2011 49.6982 73.5346 49.0744 74.0243 48.5847C74.5139 48.0951 75.1378 47.7616 75.8169 47.6265C76.4961 47.4914 77.2001 47.5607 77.8399 47.8257C78.4796 48.0907 79.0264 48.5395 79.4112 49.1153C79.7959 49.691 80.0012 50.368 80.0012 51.0604C80.0012 51.989 79.6323 52.8796 78.9757 53.5362C78.3191 54.1928 77.4286 54.5617 76.5 54.5617Z" fill="#A3195B"/>
</g>
<rect x="0.5" y="0.5" width="152" height="108" stroke="#A3195B"/>
<defs>
<clipPath id="clip0_201_192">
<rect width="50.9418" height="50" fill="white" transform="translate(51.0291 29.5)"/>
</clipPath>
</defs>
</svg>
