<svg width="153" height="109" viewBox="0 0 153 109" fill="none" xmlns="http://www.w3.org/2000/svg">
<g clipPath="url(#clip0_201_204)">
<path d="M100.941 65.5126L94.5951 59.1871V56.5946H99.0955V50.1447L89.0784 45.2917C89.0784 41.4249 87.5424 37.7165 84.8081 34.9822C82.0739 32.248 78.3655 30.7119 74.4987 30.7119C70.6319 30.7119 66.9234 32.248 64.1892 34.9822C61.455 37.7165 59.9189 41.4249 59.9189 45.2917C59.9189 45.5406 59.9189 45.7894 59.9189 46.0383L51.395 50.5595V56.5946H55.5429V78.2258H94.5951V71.3403L94.844 71.5892C95.0599 71.8068 95.3167 71.9795 95.5997 72.0973C95.8827 72.2152 96.1862 72.2759 96.4928 72.2759C96.7993 72.2759 97.1028 72.2152 97.3858 72.0973C97.6688 71.9795 97.9256 71.8068 98.1415 71.5892L100.941 68.7894C101.369 68.3515 101.609 67.7634 101.609 67.151C101.609 66.5386 101.369 65.9505 100.941 65.5126ZM97.0216 54.5207H92.5212V57.1131L87.4608 52.032C88.2121 50.571 88.71 48.9932 88.9333 47.3656L97.0216 51.5135V54.5207ZM74.4987 57.8805C71.5247 57.8916 68.645 56.8373 66.3813 54.9084C64.1177 52.9795 62.6197 50.3037 62.1587 47.3656L75.1208 40.6668L86.963 46.5153C86.6922 49.6288 85.2597 52.5264 82.9504 54.6321C80.641 56.7378 77.6239 57.8974 74.4987 57.8805ZM74.4987 32.8481C77.6038 32.8584 80.5947 34.0198 82.8932 36.1076C85.1917 38.1953 86.6343 41.0612 86.9423 44.151L75.0794 38.3025L62.0136 45.0636C62.0735 41.7958 63.4166 38.6828 65.7527 36.3971C68.0888 34.1115 71.2304 32.8366 74.4987 32.8481ZM78.9369 76.1519H71.7403V64.5378H78.9369V76.1519ZM92.5212 76.1519H81.0108V62.4639H69.6664V76.1519H57.6168V54.5207H53.4689V51.8246L60.2092 48.3196C60.6564 50.5563 61.6242 52.6561 63.0343 54.4489C64.4445 56.2417 66.2572 57.677 68.3256 58.6385C70.3939 59.6 72.6598 60.0606 74.9394 59.9829C77.219 59.9053 79.4482 59.2916 81.4463 58.1916L92.5212 69.2664V76.1519ZM99.4689 67.3169L96.669 70.1789H96.3165L83.2299 57.0924C84.4183 56.1946 85.4667 55.1252 86.3408 53.9193L92.5626 60.1411L99.4274 67.0265C99.4641 67.0643 99.488 67.1128 99.4954 67.165C99.5029 67.2171 99.4936 67.2703 99.4689 67.3169Z" fill="#F39200"/>
</g>
<rect x="0.5" y="0.5" width="152" height="108" stroke="#A3195B"/>
<defs>
<clipPath id="clip0_201_204">
<rect width="50.21" height="47.4517" fill="white" transform="translate(51.395 30.7744)"/>
</clipPath>
</defs>
</svg>
