<svg width="153" height="109" viewBox="0 0 153 109" fill="none" xmlns="http://www.w3.org/2000/svg">
<g clipPath="url(#clip0_201_195)">
<path d="M81.0798 51.4311V29.5H36.4858V79.5H116.514V51.4311H81.0798ZM44.7956 77.1393V60.1893H55.2299V77.0921L44.7956 77.1393ZM42.4348 57.8286V77.0921H38.8466V31.8607H78.7191V77.1393H57.4726V57.8286H42.4348ZM87.2885 77.0921V67.8617H108.275V77.1393L87.2885 77.0921ZM108.275 65.4537H87.3593V60.1893H108.346L108.275 65.4537ZM114.083 77.0921H110.707V57.8286H84.9986V77.0921H81.0798V53.7918H114.13L114.083 77.0921Z" fill="#F39200"/>
<path d="M57.5907 35.7324H42.4349V50.8646H57.5907V35.7324ZM55.23 48.5039H44.7956V38.0931H55.23V48.5039Z" fill="#F39200"/>
<path d="M75.721 35.7324H60.5652V50.8646H75.721V35.7324ZM73.3603 48.5039H62.9259V38.0931H73.3603V48.5039Z" fill="#F39200"/>
<path d="M75.721 57.8281H60.5652V72.9839H75.721V57.8281ZM73.3603 70.6232H62.9259V60.1888H73.3603V70.6232Z" fill="#F39200"/>
</g>
<rect x="0.5" y="0.5" width="152" height="108" stroke="#A3195B"/>
<defs>
<clipPath id="clip0_201_195">
<rect width="80.0283" height="50" fill="white" transform="translate(36.4858 29.5)"/>
</clipPath>
</defs>
</svg>
