<svg width="18" height="18" viewBox="0 0 18 18" fill="none" xmlns="http://www.w3.org/2000/svg">
<path d="M9.00001 0C6.7828 0 4.65641 0.948236 3.0886 2.63611C1.5208 4.32398 0.640015 6.61322 0.640015 9.00023C0.640072 10.1822 0.856366 11.3525 1.27655 12.4444C1.69673 13.5364 2.31257 14.5285 3.08891 15.3642C3.86525 16.1999 4.78688 16.8628 5.80118 17.3151C6.81549 17.7673 7.9026 18.0001 9.00045 18C10.0983 17.9999 11.1854 17.7671 12.1996 17.3147C13.2139 16.8624 14.1355 16.1994 14.9117 15.3636C15.688 14.5278 16.3037 13.5356 16.7238 12.4436C17.1439 11.3516 17.3601 10.1812 17.36 8.9993C17.36 4.02948 13.6163 0 9.00001 0ZM8.86852 14.2494H8.82411C8.14312 14.2279 7.66241 13.6869 7.68244 12.9641C7.7016 12.2534 8.19362 11.7369 8.85197 11.7369L8.89203 11.7387C9.59218 11.7603 10.0677 12.2956 10.0476 13.0391C10.0276 13.7516 9.54429 14.2494 8.86852 14.2494ZM11.7344 8.12646C11.5742 8.37022 11.2224 8.67585 10.7783 9.04805L10.2888 9.41087C10.0206 9.63588 9.85866 9.84869 9.79857 10.0559C9.7498 10.219 9.72716 10.2631 9.72281 10.5959V10.6803H7.85487L7.86009 10.5096C7.88361 9.81213 7.89928 9.39962 8.16837 9.0593C8.59072 8.52678 9.52251 7.87989 9.5617 7.8527C9.68953 7.75216 9.80105 7.62957 9.89175 7.48988C10.0877 7.19831 10.1739 6.96956 10.1739 6.74643C10.1739 6.43329 10.0886 6.1436 9.91874 5.88765C9.75503 5.63827 9.44414 5.51452 8.99479 5.51452C8.54892 5.51452 8.24326 5.6664 8.06126 5.97953C7.87316 6.29923 7.77824 6.6358 7.77824 6.97987V7.06612H5.85282L5.85631 6.97612C5.90594 5.70765 6.32743 4.79356 7.10595 4.26011C7.59623 3.92166 8.20669 3.7501 8.91816 3.7501C9.84821 3.7501 10.6354 3.99385 11.2537 4.47387C11.8816 4.96044 12.1995 5.68984 12.1995 6.64048C12.1986 7.17206 12.0427 7.67176 11.7344 8.12646Z" fill="#8C8C8C"/>
</svg>
