<svg width="100" height="100" viewBox="0 0 100 100" fill="none" xmlns="http://www.w3.org/2000/svg">
<path d="M49.9886 99.9997C40.0974 99.9997 30.4282 97.0666 22.204 91.5713C13.9797 86.076 7.56965 78.2654 3.78443 69.127C-0.000792041 59.9887 -0.991178 49.9332 0.93851 40.232C2.8682 30.5308 7.63129 21.6196 14.6255 14.6255C21.6196 7.63129 30.5308 2.8682 40.232 0.93851C49.9332 -0.991178 59.9887 -0.000792041 69.127 3.78443C78.2654 7.56965 86.076 13.9797 91.5713 22.204C97.0666 30.4282 99.9997 40.0974 99.9997 49.9886C99.988 63.2488 94.7152 75.9625 85.3388 85.3388C75.9625 94.7152 63.2488 99.988 49.9886 99.9997ZM49.9886 2.21455C40.5345 2.21455 31.2927 5.01831 23.4322 10.2712C15.5716 15.5241 9.44549 22.9902 5.82856 31.7251C2.21163 40.46 1.26639 50.0714 3.11242 59.3435C4.95844 68.6157 9.51279 77.1321 16.1994 83.8157C22.8861 90.4992 31.4046 95.0496 40.6776 96.8913C49.9507 98.7331 59.5616 97.7834 68.2948 94.1624C77.028 90.5414 84.4913 84.4118 89.7405 76.5488C94.9898 68.6859 97.7893 59.4428 97.7849 49.9886C97.7673 37.3197 92.7253 25.1751 83.7649 16.2189C74.8046 7.26265 62.6576 2.22627 49.9886 2.21455Z" fill="#464646"/>
<circle cx="49.999" cy="50" r="48.5" fill="white" stroke="#464646"/>
<path d="M72.846 69.0141H47.5747C47.281 69.0141 46.9993 68.8974 46.7916 68.6897C46.584 68.482 46.4673 68.2004 46.4673 67.9066C46.4673 67.6129 46.584 67.3313 46.7916 67.1236C46.9993 66.9159 47.281 66.7992 47.5747 66.7992H72.846C73.094 66.7992 73.3391 66.7457 73.5645 66.6425C73.79 66.5394 73.9906 66.3888 74.1528 66.2012C74.3201 66.0182 74.443 65.7992 74.5122 65.5611C74.5813 65.323 74.5947 65.0722 74.5515 64.828L70.4097 34.8391C70.3511 34.4222 70.1441 34.0405 69.8268 33.7638C69.5095 33.4872 69.1031 33.3342 68.6821 33.333H42.835C42.5413 33.333 42.2596 33.2163 42.0519 33.0086C41.8442 32.801 41.7275 32.5193 41.7275 32.2256C41.7275 31.9319 41.8442 31.6502 42.0519 31.4425C42.2596 31.2348 42.5413 31.1182 42.835 31.1182H68.66C69.6133 31.1241 70.5329 31.4714 71.2522 32.0971C71.9714 32.7229 72.4426 33.5857 72.5802 34.529L76.722 64.5179C76.7909 65.0713 76.7417 65.6331 76.5775 66.166C76.4133 66.699 76.1379 67.191 75.7694 67.6097C75.401 68.0284 74.948 68.3641 74.4402 68.5947C73.9325 68.8253 73.3816 68.9456 72.8239 68.9476L72.846 69.0141Z" fill="#464646"/>
<path d="M29.4132 33.6212L28.6159 32.846L28.04 31.8936C28.5616 31.3875 29.2624 31.1088 29.9891 31.1184H36.0799C36.3736 31.1184 36.6553 31.2351 36.863 31.4428C37.0707 31.6504 37.1873 31.9321 37.1873 32.2258C37.1873 32.5195 37.0707 32.8012 36.863 33.0089C36.6553 33.2166 36.3736 33.3332 36.0799 33.3332H29.9891C29.7676 33.3332 29.7676 33.3332 29.4132 33.6212Z" fill="#464646"/>
<path d="M35.4372 69.0137H26.2456C25.6883 69.0143 25.1374 68.8961 24.6294 68.6669C24.1215 68.4378 23.6682 68.103 23.2999 67.6848C22.9299 67.2647 22.6521 66.7717 22.4842 66.2376C22.3164 65.7036 22.2623 65.1403 22.3253 64.5841L24.8281 44.6505C24.8663 44.3568 25.0196 44.0903 25.2542 43.9096C25.3705 43.8201 25.5031 43.7544 25.6447 43.7163C25.7863 43.6781 25.934 43.6681 26.0795 43.6871C26.2249 43.706 26.3652 43.7533 26.4923 43.8264C26.6194 43.8996 26.7309 43.997 26.8204 44.1132C26.9098 44.2294 26.9755 44.3621 27.0137 44.5037C27.0519 44.6453 27.0618 44.793 27.0429 44.9384L24.5623 64.872C24.5313 65.1176 24.5528 65.367 24.6253 65.6038C24.6979 65.8405 24.8198 66.0591 24.9831 66.2452C25.142 66.4294 25.3394 66.5764 25.5614 66.6759C25.7834 66.7754 26.0245 66.825 26.2677 66.821H35.4372C35.7309 66.821 36.0126 66.9377 36.2202 67.1454C36.4279 67.3531 36.5446 67.6348 36.5446 67.9285C36.5446 68.2222 36.4279 68.5039 36.2202 68.7115C36.0126 68.9192 35.7309 69.0359 35.4372 69.0359V69.0137Z" fill="#464646"/>
<path d="M59.2246 69.0144C58.9456 69.0153 58.6766 68.9109 58.4713 68.722C58.2659 68.5331 58.1395 68.2737 58.1172 67.9956L55.5701 32.3145C55.558 32.1672 55.5756 32.019 55.6217 31.8787C55.6678 31.7383 55.7415 31.6085 55.8385 31.4971C55.9355 31.3856 56.0538 31.2947 56.1865 31.2297C56.3192 31.1647 56.4636 31.1269 56.6111 31.1185C56.9021 31.1116 57.1849 31.2151 57.4027 31.4082C57.6205 31.6013 57.757 31.8697 57.7849 32.1595L60.332 67.8184C60.3441 67.9656 60.3265 68.1138 60.2804 68.2542C60.2343 68.3946 60.1606 68.5243 60.0636 68.6358C59.9666 68.7473 59.8483 68.8382 59.7156 68.9032C59.5829 68.9682 59.4386 69.006 59.291 69.0144H59.2246Z" fill="#464646"/>
<path d="M31.4728 56.6777H24.5625C24.2688 56.6777 23.9871 56.5611 23.7794 56.3534C23.5718 56.1457 23.4551 55.864 23.4551 55.5703C23.4607 55.2784 23.5792 55 23.7857 54.7935C23.9922 54.5871 24.2706 54.4686 24.5625 54.4629H31.4728C31.7665 54.4629 32.0482 54.5796 32.2559 54.7872C32.4635 54.9949 32.5802 55.2766 32.5802 55.5703C32.5802 55.864 32.4635 56.1457 32.2559 56.3534C32.0482 56.5611 31.7665 56.6777 31.4728 56.6777Z" fill="#464646"/>
<path d="M74.3957 56.6777H44.0967C43.803 56.6777 43.5213 56.5611 43.3136 56.3534C43.1059 56.1457 42.9893 55.864 42.9893 55.5703C42.9893 55.2766 43.1059 54.9949 43.3136 54.7872C43.5213 54.5796 43.803 54.4629 44.0967 54.4629H74.3957C74.6894 54.4629 74.9711 54.5796 75.1787 54.7872C75.3864 54.9949 75.5031 55.2766 75.5031 55.5703C75.5031 55.864 75.3864 56.1457 75.1787 56.3534C74.9711 56.5611 74.6894 56.6777 74.3957 56.6777Z" fill="#464646"/>
<path d="M72.6026 43.7432H41.4619C41.1682 43.7432 40.8865 43.6265 40.6789 43.4188C40.4712 43.2111 40.3545 42.9294 40.3545 42.6357C40.3545 42.342 40.4712 42.0604 40.6789 41.8527C40.8865 41.645 41.1682 41.5283 41.4619 41.5283H72.6026C72.8963 41.5283 73.1779 41.645 73.3856 41.8527C73.5933 42.0604 73.71 42.342 73.71 42.6357C73.71 42.9294 73.5933 43.2111 73.3856 43.4188C73.1779 43.6265 72.8963 43.7432 72.6026 43.7432Z" fill="#464646"/>
<path d="M42.9677 79.5343C41.8827 79.5185 40.8181 79.2371 39.8669 78.7148C39.0695 78.3022 38.364 77.7323 37.793 77.0395C37.222 76.3467 36.7973 75.5453 36.5446 74.6838L28.1947 47.6849C23.9422 44.9828 21.5502 41.7492 21.1958 38.0504C20.5313 31.6717 25.9798 26.4446 26.2013 26.2232C26.341 26.0952 26.5105 26.0045 26.6944 25.9593C26.8783 25.914 27.0706 25.9157 27.2537 25.9643C27.4367 26.0128 27.6047 26.1065 27.742 26.2369C27.8793 26.3673 27.9817 26.5301 28.0396 26.7104L30.4317 35.1711C30.616 35.8113 31.0459 36.3526 31.6277 36.6772C31.9127 36.8435 32.2291 36.949 32.5569 36.9872C32.8847 37.0253 33.2169 36.9952 33.5324 36.8987C34.136 36.7225 34.6522 36.3275 34.9799 35.7908C35.3076 35.2542 35.4233 34.6147 35.3043 33.9972L33.5103 25.1379C33.4671 24.9452 33.4772 24.7444 33.5397 24.557C33.6021 24.3697 33.7145 24.203 33.8647 24.0748C34.01 23.9533 34.183 23.8695 34.3685 23.8308C34.5539 23.7922 34.746 23.7999 34.9278 23.8533C36.8535 24.3245 38.6437 25.2357 40.1578 26.5154C41.672 27.7951 42.8688 29.4085 43.6543 31.2287C45.6476 36.5886 42.8791 42.4579 41.9931 44.0969L49.5457 70.8743C49.8257 71.8951 49.8659 72.9669 49.6631 74.0058C49.4604 75.0448 49.0201 76.0227 48.3768 76.8633C47.7335 77.704 46.9045 78.3844 45.9546 78.8516C45.0048 79.3188 43.9597 79.56 42.9012 79.5565L42.9677 79.5343ZM26.5779 29.2796C24.519 31.6429 23.4275 34.696 23.5214 37.8289C23.8536 40.9075 25.9577 43.6539 29.8115 46.0017C30.0394 46.1473 30.2111 46.366 30.2988 46.6218L38.6709 74.0415C38.8418 74.6194 39.1256 75.1577 39.5058 75.6252C39.8859 76.0928 40.3549 76.4805 40.8857 76.7658C41.6836 77.2042 42.5936 77.3964 43.5006 77.3181C44.4077 77.2397 45.2712 76.8944 45.9821 76.3256C46.693 75.7569 47.2195 74.9903 47.495 74.1225C47.7706 73.2548 47.7828 72.3249 47.5302 71.4502L39.734 44.2962C39.6677 44.0019 39.7152 43.6933 39.8669 43.4325C39.8669 43.4325 43.4992 37.1866 41.5723 32.0482C41.0775 30.8104 40.335 29.6867 39.3905 28.746C38.446 27.8053 37.3193 27.0674 36.0795 26.5775L37.4749 33.51C37.7394 34.7153 37.521 35.9763 36.8667 37.0226C36.2123 38.0689 35.1741 38.8171 33.9746 39.1068C32.775 39.3966 31.5097 39.2048 30.4499 38.5725C29.3901 37.9403 28.6203 36.918 28.3054 35.7248L26.5779 29.2796Z" fill="#464646"/>
</svg>
