<svg width="100" height="100" viewBox="0 0 100 100"  fill="white" xmlns="http://www.w3.org/2000/svg">
<g clipPath="url(#clip0_201_470)">
<path d="M69.812 73.9974H30.1885C29.8948 73.9974 29.6131 73.8807 29.4054 73.673C29.1977 73.4654 29.0811 73.1837 29.0811 72.89V23.9863C29.0811 23.6926 29.1977 23.4109 29.4054 23.2033C29.6131 22.9956 29.8948 22.8789 30.1885 22.8789H69.812C70.1057 22.8789 70.3873 22.9956 70.595 23.2033C70.8027 23.4109 70.9194 23.6926 70.9194 23.9863V47.0207H68.6602V25.0937H31.2959V71.7826H68.6602V56.8988H70.8751V72.89C70.8753 73.1762 70.7647 73.4513 70.5665 73.6578C70.3683 73.8642 70.0979 73.986 69.812 73.9974Z" fill="#464646"/>
<path d="M53.4664 69.258C53.1774 69.2597 52.8992 69.1484 52.6912 68.9479C52.5422 68.8056 52.4377 68.6231 52.3906 68.4226C52.3434 68.2221 52.3555 68.0121 52.4254 67.8183L54.9503 60.1107C55.0057 59.9403 55.105 59.7875 55.2382 59.6677L74.9503 40.4429C75.0513 40.3398 75.172 40.2579 75.3051 40.2019C75.4382 40.146 75.5811 40.1172 75.7255 40.1172C75.8699 40.1172 76.0128 40.146 76.1459 40.2019C76.279 40.2579 76.3996 40.3398 76.5007 40.4429L81.3733 45.3156C81.4793 45.415 81.5637 45.5351 81.6214 45.6684C81.6791 45.8017 81.7089 45.9455 81.7089 46.0908C81.7089 46.2361 81.6791 46.3798 81.6214 46.5131C81.5637 46.6465 81.4793 46.7665 81.3733 46.866L62.0156 66.268C61.9045 66.3959 61.7581 66.4884 61.5948 66.5337L53.8429 69.2137C53.7219 69.2548 53.5936 69.2699 53.4664 69.258ZM56.9658 61.0631L55.2161 66.4451L60.6203 64.6068L79.0256 46.1794L75.7255 42.8571L56.9658 61.0631Z" fill="#464646"/>
<path d="M62.924 52.248H34.5962V54.4629H62.924V52.248Z" fill="#464646"/>
<path d="M60.3548 66.4449L55.5486 61.5723H34.5962V59.3574H56.0137C56.3026 59.3557 56.5808 59.467 56.7889 59.6675L62.0159 64.7838L60.3548 66.4449Z" fill="#464646"/>
<path d="M45.0058 46.1571C43.3711 46.15 41.7701 45.6907 40.3802 44.83C38.9903 43.9693 37.8657 42.7409 37.1308 41.2806C36.3958 39.8203 36.0793 38.1851 36.2162 36.5561C36.353 34.927 36.938 33.3676 37.9063 32.0504C38.8746 30.7332 40.1885 29.7097 41.7025 29.093C43.2165 28.4763 44.8716 28.2906 46.4847 28.5563C48.0977 28.8221 49.6058 29.529 50.8419 30.5988C52.0781 31.6686 52.9941 33.0596 53.4887 34.6178L51.3846 35.2823C50.9297 33.8418 49.9976 32.5993 48.7418 31.7597C47.4861 30.92 45.9818 30.5333 44.4768 30.6633C42.9718 30.7932 41.556 31.4321 40.4629 32.4746C39.3697 33.5171 38.6644 34.901 38.4632 36.3981C38.262 37.8953 38.5769 39.4163 39.3561 40.7104C40.1352 42.0045 41.3321 42.9945 42.7494 43.5172C44.1667 44.0399 45.7197 44.0641 47.1526 43.5857C48.5854 43.1074 49.8125 42.1551 50.6315 40.8858L52.492 42.0818C51.6875 43.3358 50.5798 44.3666 49.2712 45.0789C47.9627 45.7912 46.4957 46.1621 45.0058 46.1571Z" fill="#464646"/>
<path d="M45.205 34.7949H34.1973V37.0098H45.205V34.7949Z" fill="#464646"/>
<path d="M45.205 38.4268H34.1973V40.6416H45.205V38.4268Z" fill="#464646"/>
<path d="M49.9891 99.9997C40.0979 99.9997 30.4287 97.0666 22.2045 91.5713C13.9802 86.076 7.57014 78.2654 3.78492 69.127C-0.00030376 59.9887 -0.99069 49.9332 0.938999 40.232C2.86869 30.5308 7.63178 21.6196 14.626 14.6255C21.6201 7.63129 30.5312 2.8682 40.2324 0.93851C49.9336 -0.991178 59.9892 -0.000792041 69.1275 3.78443C78.2659 7.56965 86.0765 13.9797 91.5718 22.204C97.0671 30.4282 100 40.0974 100 49.9886C99.9885 63.2488 94.7157 75.9625 85.3393 85.3388C75.963 94.7152 63.2493 99.988 49.9891 99.9997ZM49.9891 2.21455C40.535 2.21455 31.2932 5.01831 23.4327 10.2712C15.5721 15.5241 9.44598 22.9902 5.82905 31.7251C2.21211 40.46 1.26688 50.0714 3.11291 59.3435C4.95893 68.6157 9.51328 77.1321 16.1999 83.8157C22.8866 90.4992 31.4051 95.0496 40.6781 96.8913C49.9511 98.7331 59.5621 97.7834 68.2953 94.1624C77.0285 90.5414 84.4918 84.4118 89.741 76.5488C94.9903 68.6859 97.7897 59.4428 97.7854 49.9886C97.7678 37.3197 92.7258 25.1751 83.7654 16.2189C74.805 7.26265 62.658 2.22627 49.9891 2.21455Z" fill="#464646"/>
</g>
<defs>
<clipPath id="clip0_201_470">
<rect width="100" height="100" fill="white"/>
</clipPath>
</defs>
</svg>
