<svg width="340" height="211" viewBox="0 0 340 211" fill="none" xmlns="http://www.w3.org/2000/svg">
<g clip-path="url(#clip0_483_79)">
<path d="M307.28 62.7327H20.1699L47.9936 0H281.562L281.779 0.518038L307.28 62.7327ZM22.7434 61.0616H304.79L280.442 1.67109H49.0798L22.7434 61.0616Z" fill="black"/>
<path d="M294.596 210.891H155.244L155.495 146.137L0 146.254V144.583H113.634V84.1894H32.1184V61.0615H296.151L295.282 144.332H340V146.003H295.265L294.596 210.891ZM156.915 209.22H292.942L293.594 146.036L157.166 146.137L156.915 209.22ZM115.305 144.332H293.611L294.463 62.7326H33.7727V82.5183H115.305V144.332Z" fill="black"/>
<path d="M332.347 150.214H294.379V151.885H332.347V150.214Z" fill="black"/>
<path d="M156.314 150.214H18.8999V151.885H156.314V150.214Z" fill="black"/>
<path d="M189.101 210.056H187.429V204.508H179.258V197.356H172.106V190.187H164.435V181.765H156.197V180.094H166.106V188.516H173.777V195.685H180.929V202.837H189.101V210.056Z" fill="black"/>
<path d="M73.6617 138.082H70.1858V136.411H73.528C73.6875 136.411 73.8406 136.348 73.9534 136.235C74.0662 136.122 74.1296 135.969 74.1296 135.809V123.36C74.1304 123.212 74.0768 123.069 73.9792 122.959L63.2675 110.693C63.2108 110.629 63.1412 110.579 63.0634 110.544C62.9856 110.51 62.9014 110.492 62.8163 110.492H38.3348C38.264 110.491 38.1935 110.503 38.1276 110.529C38.0616 110.555 38.0014 110.593 37.9505 110.643L26.7375 120.135C26.5906 120.269 26.4209 120.377 26.2361 120.452L9.10747 128.423C9.00205 128.471 8.91283 128.549 8.85057 128.647C8.78831 128.745 8.75566 128.859 8.75654 128.975V135.809C8.75654 135.969 8.81992 136.122 8.93274 136.235C9.04556 136.348 9.19858 136.411 9.35813 136.411H15.5913V138.082H9.35813C8.75538 138.082 8.17731 137.843 7.7511 137.416C7.32489 136.99 7.08545 136.412 7.08545 135.809V128.975C7.08515 128.546 7.20366 128.125 7.42783 127.759C7.652 127.393 7.97308 127.097 8.35548 126.902L25.5009 118.948L36.8309 109.356C37.2465 109.017 37.7649 108.828 38.3014 108.821H62.95C63.2682 108.827 63.5816 108.9 63.8696 109.035C64.1576 109.171 64.4137 109.365 64.6211 109.607L75.3328 121.856C75.6866 122.277 75.8817 122.809 75.8842 123.36V135.809C75.8844 136.404 75.6518 136.974 75.2364 137.399C74.821 137.824 74.2557 138.069 73.6617 138.082V138.082Z" fill="black"/>
<path d="M55.9314 136.411H29.1772V138.082H55.9314V136.411Z" fill="black"/>
<path d="M62.7492 144.883C61.2388 144.883 59.7622 144.435 58.5064 143.596C57.2505 142.757 56.2716 141.564 55.6936 140.169C55.1156 138.773 54.9644 137.238 55.259 135.756C55.5537 134.275 56.2811 132.914 57.3491 131.846C58.4171 130.778 59.7779 130.051 61.2593 129.756C62.7407 129.461 64.2762 129.613 65.6717 130.191C67.0672 130.769 68.2599 131.748 69.099 133.003C69.9382 134.259 70.3861 135.736 70.3861 137.246C70.3817 139.27 69.5756 141.21 68.1444 142.641C66.7132 144.073 64.7733 144.879 62.7492 144.883V144.883ZM62.7492 131.28C61.5693 131.28 60.4158 131.63 59.4348 132.286C58.4537 132.941 57.6891 133.873 57.2375 134.963C56.786 136.053 56.6678 137.253 56.898 138.41C57.1282 139.567 57.6964 140.63 58.5307 141.465C59.3651 142.299 60.4281 142.867 61.5853 143.097C62.7426 143.328 63.9421 143.209 65.0322 142.758C66.1223 142.306 67.054 141.542 67.7096 140.561C68.3651 139.58 68.715 138.426 68.715 137.246C68.715 135.664 68.0864 134.147 66.9676 133.028C65.8488 131.909 64.3314 131.28 62.7492 131.28V131.28Z" fill="black"/>
<path d="M22.3757 144.884C20.8682 144.871 19.3983 144.412 18.1512 143.564C16.9042 142.717 15.9358 141.52 15.368 140.123C14.8002 138.727 14.6585 137.193 14.9606 135.717C15.2628 134.24 15.9954 132.885 17.066 131.824C18.1367 130.762 19.4975 130.042 20.9771 129.752C22.4566 129.463 23.9887 129.618 25.3803 130.198C26.7719 130.778 27.9606 131.757 28.7969 133.011C29.6331 134.266 30.0794 135.739 30.0794 137.247C30.0795 138.255 29.8797 139.254 29.4918 140.185C29.1038 141.116 28.5353 141.961 27.8191 142.671C27.1028 143.381 26.253 143.942 25.3187 144.322C24.3845 144.702 23.3842 144.893 22.3757 144.884ZM22.3757 131.281C21.1987 131.294 20.0519 131.655 19.0797 132.319C18.1075 132.982 17.3532 133.919 16.9119 135.01C16.4706 136.101 16.362 137.298 16.5997 138.451C16.8373 139.604 17.4107 140.661 18.2477 141.488C19.0846 142.316 20.1477 142.878 21.303 143.103C22.4584 143.327 23.6545 143.205 24.7407 142.752C25.8269 142.298 26.7548 141.534 27.4074 140.554C28.06 139.575 28.4083 138.424 28.4083 137.247C28.4084 136.458 28.2519 135.677 27.9479 134.948C27.6439 134.22 27.1985 133.56 26.6374 133.005C26.0764 132.45 25.4108 132.012 24.6792 131.716C23.9477 131.42 23.1648 131.272 22.3757 131.281Z" fill="black"/>
<path d="M53.7087 83.3535H52.0376V109.673H53.7087V83.3535Z" fill="black"/>
<path d="M248.558 145.235H246.887V92.9131H281.512V145.168H279.841V94.5842H248.558V145.235Z" fill="black"/>
<path d="M252.969 113.116H251.298V127.488H252.969V113.116Z" fill="black"/>
<path d="M155.645 98.1602H153.974V119.116H155.645V98.1602Z" fill="#163D2D"/>
<path d="M163.569 102.232L145.501 112.714L146.34 114.159L164.408 103.677L163.569 102.232Z" fill="#163D2D"/>
<path d="M146.337 102.218L145.499 103.664L163.573 114.137L164.41 112.691L146.337 102.218Z" fill="#163D2D"/>
<path d="M154.76 104.109L150.816 100.015L152.019 98.8617L154.843 101.803L158.202 98.8115L159.322 100.065L154.76 104.109Z" fill="#163D2D"/>
<path d="M163.566 107.601L159.84 105.362V101.067H161.511V104.41L164.435 106.164L163.566 107.601Z" fill="#163D2D"/>
<path d="M159.856 115.957L158.904 110.475L163.717 108.721L164.285 110.292L160.792 111.562L161.494 115.672L159.856 115.957Z" fill="#163D2D"/>
<path d="M157.968 118.648L154.843 115.523L152.036 118.631L150.799 117.511L154.777 113.083L159.155 117.478L157.968 118.648Z" fill="#163D2D"/>
<path d="M149.763 116.392L148.159 115.974L149.312 111.512L144.7 110.543L145.051 108.905L151.367 110.225L149.763 116.392Z" fill="#163D2D"/>
<path d="M146.153 107.435L145.702 105.814L149.178 104.844L148.209 101.268L149.83 100.851L151.217 106.014L146.153 107.435Z" fill="#163D2D"/>
<path d="M154.96 123.811C151.87 123.811 148.849 122.895 146.28 121.178C143.71 119.461 141.707 117.021 140.525 114.166C139.342 111.311 139.033 108.169 139.636 105.138C140.239 102.107 141.727 99.3231 143.912 97.1379C146.097 94.9527 148.881 93.4646 151.912 92.8618C154.943 92.2589 158.084 92.5683 160.939 93.7509C163.795 94.9335 166.235 96.9361 167.952 99.5056C169.668 102.075 170.585 105.096 170.585 108.186C170.585 112.33 168.939 116.304 166.008 119.235C163.078 122.165 159.104 123.811 154.96 123.811V123.811ZM154.96 94.2493C152.2 94.2493 149.501 95.0681 147.206 96.6021C144.911 98.1361 143.123 100.316 142.067 102.867C141.011 105.418 140.736 108.224 141.276 110.931C141.816 113.638 143.146 116.125 145.099 118.076C147.053 120.026 149.54 121.354 152.248 121.89C154.956 122.427 157.762 122.148 160.312 121.09C162.861 120.031 165.039 118.24 166.57 115.943C168.102 113.646 168.917 110.947 168.914 108.186C168.909 104.488 167.437 100.944 164.821 98.3303C162.205 95.7171 158.658 94.2493 154.96 94.2493V94.2493Z" fill="#163D2D"/>
<path d="M200.531 123.811C197.441 123.811 194.42 122.895 191.85 121.178C189.281 119.461 187.278 117.021 186.096 114.166C184.913 111.311 184.604 108.169 185.206 105.138C185.809 102.107 187.297 99.3231 189.483 97.1379C191.668 94.9527 194.452 93.4646 197.483 92.8618C200.514 92.2589 203.655 92.5683 206.51 93.7509C209.365 94.9335 211.806 96.9361 213.522 99.5056C215.239 102.075 216.156 105.096 216.156 108.186C216.156 112.33 214.509 116.304 211.579 119.235C208.649 122.165 204.675 123.811 200.531 123.811V123.811ZM200.531 94.2493C197.77 94.2493 195.072 95.0681 192.777 96.6021C190.482 98.1361 188.694 100.316 187.638 102.867C186.582 105.418 186.307 108.224 186.847 110.931C187.386 113.638 188.717 116.125 190.67 118.076C192.623 120.026 195.111 121.354 197.819 121.89C200.527 122.427 203.333 122.148 205.882 121.09C208.432 120.031 210.61 118.24 212.141 115.943C213.672 113.646 214.488 110.947 214.485 108.186C214.48 104.488 213.008 100.944 210.392 98.3303C207.775 95.7171 204.229 94.2493 200.531 94.2493V94.2493Z" fill="#163D2D"/>
<path d="M199.428 119.75V110.826H192.626L202.82 97.9424V106.03H208.368L199.428 119.75ZM201.099 109.155V114.169L205.277 107.752H201.149V102.738L196.136 109.139L201.099 109.155Z" fill="#163D2D"/>
<path d="M185.809 107.351H169.75V109.022H185.809V107.351Z" fill="#163D2D"/>
<path d="M243.261 170.2H241.59V115.957C241.59 114.12 240.861 112.359 239.564 111.059C238.267 109.759 236.508 109.026 234.671 109.022H215.37V107.351H234.671C236.951 107.355 239.135 108.264 240.746 109.877C242.356 111.491 243.261 113.677 243.261 115.957V170.2Z" fill="#163D2D"/>
<path d="M232.399 186.61H219.631V188.281H232.399V186.61Z" fill="#163D2D"/>
<path d="M258.267 188.282H252.452V186.611H258.267C259.112 186.607 259.922 186.269 260.519 185.671C261.117 185.074 261.454 184.264 261.459 183.419V54.8623H263.13V183.419C263.13 184.709 262.618 185.946 261.706 186.858C260.794 187.77 259.557 188.282 258.267 188.282Z" fill="#163D2D"/>
<path d="M252.452 170.2H232.398V206.797H252.452V170.2Z" fill="#F1C88B"/>
<path d="M253.287 207.633H231.563V169.365H253.287V207.633ZM233.234 205.962H251.616V171.036H233.234V205.962Z" fill="black"/>
<path d="M250.864 173.041H241.088V173.877H250.864V173.041Z" fill="black"/>
<path d="M250.864 175.397H241.088V176.233H250.864V175.397Z" fill="black"/>
<path d="M249.644 186.293H235.206V189.802H249.644V186.293Z" fill="black"/>
<path d="M249.644 192.426H235.206V195.935H249.644V192.426Z" fill="black"/>
<path d="M249.644 198.559H235.206V202.068H249.644V198.559Z" fill="black"/>
<path d="M219.631 183.87H198.876V206.797H219.631V183.87Z" fill="#F1C88B"/>
<path d="M220.467 207.633H198.041V183.034H220.467V207.633ZM199.712 205.962H218.796V184.705H199.712V205.962Z" fill="black"/>
<path d="M208.335 197.189C209.889 197.189 211.961 198.425 213.031 193.161C213.155 192.611 213.155 192.04 213.031 191.49L212.663 190.003L211.761 192.459L211.46 191.056C211.208 189.658 210.482 188.389 209.404 187.463C208.809 186.957 208.076 186.642 207.299 186.561C207.299 186.561 208.502 189.201 208.118 190.204C207.733 191.206 206.814 188.716 206.814 188.716C206.664 189.137 206.541 189.566 206.447 190.003C206.34 190.645 206.023 191.233 205.544 191.674C205.006 192.08 204.631 192.666 204.487 193.325C204.342 193.984 204.439 194.673 204.759 195.267C206.129 197.891 207.332 197.189 208.335 197.189Z" fill="black"/>
<path d="M218.779 200.113H199.695V201.784H218.779V200.113Z" fill="black"/>
<path d="M217.358 200.948H216.523V205.945H217.358V200.948Z" fill="black"/>
<path d="M215.721 200.948H214.885V205.945H215.721V200.948Z" fill="black"/>
<path d="M214.1 200.948H213.265V205.945H214.1V200.948Z" fill="black"/>
<path d="M212.462 200.948H211.627V205.945H212.462V200.948Z" fill="black"/>
<path d="M210.841 200.948H210.006V205.945H210.841V200.948Z" fill="black"/>
<path d="M209.204 200.948H208.368V205.945H209.204V200.948Z" fill="black"/>
<path d="M207.583 200.948H206.747V205.945H207.583V200.948Z" fill="black"/>
<path d="M205.945 200.948H205.109V205.945H205.945V200.948Z" fill="black"/>
<path d="M204.324 200.948H203.489V205.945H204.324V200.948Z" fill="black"/>
<path d="M202.687 200.948H201.851V205.945H202.687V200.948Z" fill="black"/>
<path d="M201.066 200.948H200.23V205.945H201.066V200.948Z" fill="black"/>
<path d="M281.746 55.6976H171.872C171.144 55.6948 170.426 55.5275 169.772 55.2082C169.118 54.8889 168.544 54.4259 168.094 53.8538C167.645 53.2817 167.33 52.6153 167.174 51.9044C167.017 51.1935 167.024 50.4565 167.193 49.7485L175.983 13.3689C176.253 12.3146 176.865 11.3798 177.724 10.7114C178.583 10.043 179.64 9.67872 180.728 9.67578L267.625 10.645C268.581 10.6507 269.513 10.9417 270.302 11.4806C271.091 12.0195 271.701 12.7818 272.054 13.6697L286.241 49.1469C286.547 49.8823 286.666 50.6819 286.588 51.4746C286.51 52.2673 286.238 53.0283 285.794 53.69C285.351 54.3517 284.751 54.8935 284.047 55.2671C283.344 55.6407 282.559 55.8345 281.763 55.8313L281.746 55.6976ZM180.678 11.28C179.967 11.2763 179.276 11.5139 178.717 11.9541C178.159 12.3942 177.766 13.0108 177.604 13.7031L168.78 50.1329C168.669 50.5959 168.665 51.0781 168.766 51.5433C168.868 52.0084 169.074 52.4445 169.368 52.819C169.662 53.1935 170.037 53.4966 170.465 53.7057C170.893 53.9148 171.362 54.0245 171.838 54.0265H281.746C282.261 54.025 282.768 53.8975 283.222 53.6552C283.677 53.4129 284.065 53.0632 284.353 52.6364C284.642 52.2096 284.821 51.7188 284.877 51.2067C284.932 50.6946 284.861 50.1768 284.67 49.6984L270.483 14.2211C270.253 13.6415 269.854 13.144 269.339 12.7926C268.824 12.4412 268.215 12.2519 267.592 12.2493L180.695 11.28H180.678Z" fill="#163D2D"/>
<path d="M273.925 19.752H175.08V21.423H273.925V19.752Z" fill="#163D2D"/>
<path d="M278.253 30.5312H172.49V32.2023H278.253V30.5312Z" fill="#163D2D"/>
<path d="M282.414 42.479C244.28 42.479 171.721 42.3621 170.15 42.479V41.6602L169.315 41.443C169.482 40.7745 169.482 40.7745 187.697 40.7578H226.299C254.39 40.7578 282.464 40.7578 282.464 40.7578L282.414 42.479Z" fill="#163D2D"/>
<path d="M258.181 11.1001L256.567 11.5352L268.314 55.0988L269.927 54.6637L258.181 11.1001Z" fill="#163D2D"/>
<path d="M244.156 11.0356L242.505 11.2959L249.4 55.0229L251.05 54.7626L244.156 11.0356Z" fill="#163D2D"/>
<path d="M232.786 10.9868L231.117 11.0742L233.416 54.9303L235.084 54.8428L232.786 10.9868Z" fill="#163D2D"/>
<path d="M220.517 10.8789H218.846V54.862H220.517V10.8789Z" fill="#163D2D"/>
<path d="M206.096 10.6541L201.591 54.7754L203.253 54.9451L207.758 10.8238L206.096 10.6541Z" fill="#163D2D"/>
<path d="M191.112 10.4227L183.748 54.7168L185.396 54.9909L192.761 10.6968L191.112 10.4227Z" fill="#163D2D"/>
</g>
<defs>
<clipPath id="clip0_483_79">
<rect width="340" height="210.892" fill="white"/>
</clipPath>
</defs>
</svg>
