<svg width="100" height="100" viewBox="0 0 100 100" fill="none" xmlns="http://www.w3.org/2000/svg">
<g clipPath="url(#clip0_201_517)">
<path d="M50 100C40.111 100 30.444 97.0676 22.2215 91.5735C13.9991 86.0794 7.59043 78.2705 3.80605 69.1342C0.0216642 59.9979 -0.968503 49.9446 0.960759 40.2455C2.89002 30.5465 7.65206 21.6373 14.6447 14.6447C21.6373 7.65206 30.5465 2.89002 40.2455 0.960759C49.9446 -0.968503 59.9979 0.0216642 69.1342 3.80605C78.2705 7.59043 86.0794 13.9991 91.5735 22.2215C97.0676 30.444 100 40.111 100 50C99.9883 63.2572 94.7167 75.9681 85.3424 85.3424C75.9681 94.7167 63.2572 99.9883 50 100ZM50 2.21535C40.5491 2.21535 31.3104 5.01787 23.4523 10.2685C15.5941 15.5192 9.46945 22.9821 5.85274 31.7136C2.23604 40.4451 1.28974 50.053 3.13352 59.3223C4.9773 68.5917 9.52835 77.1061 16.2112 83.7889C22.894 90.4717 31.4084 95.0228 40.6777 96.8665C49.947 98.7103 59.5549 97.764 68.2864 94.1473C77.0179 90.5306 84.4809 84.4059 89.7315 76.5478C94.9822 68.6896 97.7847 59.4509 97.7847 50C97.7671 37.3321 92.727 25.1881 83.7695 16.2306C74.8119 7.27302 62.6679 2.23293 50 2.21535ZM50 58.2189C48.3745 58.2189 46.7854 57.7369 45.4339 56.8338C44.0823 55.9307 43.0288 54.6471 42.4068 53.1452C41.7847 51.6434 41.6219 49.9909 41.9391 48.3966C42.2562 46.8023 43.039 45.3378 44.1884 44.1884C45.3378 43.039 46.8023 42.2562 48.3966 41.9391C49.9909 41.6219 51.6434 41.7847 53.1452 42.4068C54.6471 43.0288 55.9307 44.0823 56.8338 45.4339C57.7369 46.7854 58.2189 48.3745 58.2189 50C58.2189 52.1798 57.353 54.2703 55.8116 55.8116C54.2703 57.353 52.1798 58.2189 50 58.2189ZM50 43.9965C48.8126 43.9965 47.6519 44.3486 46.6646 45.0083C45.6774 45.6679 44.9079 46.6056 44.4535 47.7026C43.9991 48.7996 43.8802 50.0067 44.1118 51.1713C44.3435 52.3358 44.9153 53.4056 45.7549 54.2452C46.5945 55.0848 47.6642 55.6566 48.8288 55.8882C49.9934 56.1199 51.2005 56.001 52.2975 55.5466C53.3945 55.0922 54.3321 54.3227 54.9918 53.3354C55.6515 52.3481 56.0036 51.1874 56.0036 50C55.9977 48.4096 55.3633 46.8859 54.2387 45.7613C53.1141 44.6367 51.5905 44.0023 50 43.9965Z" fill="#464646"/>
<path d="M54.6745 69.1849H46.1234C45.8296 69.1849 45.5478 69.0682 45.3401 68.8605C45.1324 68.6528 45.0157 68.3711 45.0157 68.0773V64.6435C44.6391 64.5106 44.2846 64.3777 43.9523 64.2226L41.2939 66.8589C41.1945 66.9648 41.0744 67.0493 40.941 67.107C40.8077 67.1647 40.6639 67.1945 40.5186 67.1945C40.3733 67.1945 40.2295 67.1647 40.0961 67.107C39.9628 67.0493 39.8427 66.9648 39.7432 66.8589L33.6954 60.811C33.5894 60.7116 33.5049 60.5914 33.4472 60.4581C33.3895 60.3247 33.3597 60.181 33.3597 60.0356C33.3597 59.8903 33.3895 59.7465 33.4472 59.6132C33.5049 59.4798 33.5894 59.3597 33.6954 59.2603L36.1101 56.8234C35.955 56.4911 35.7999 56.1367 35.667 55.7822H31.9231C31.6293 55.7822 31.3476 55.6655 31.1399 55.4578C30.9321 55.25 30.8154 54.9683 30.8154 54.6745V46.1234C30.8154 45.8296 30.9321 45.5478 31.1399 45.3401C31.3476 45.1324 31.6293 45.0157 31.9231 45.0157H35.4455C35.5784 44.6391 35.7113 44.2846 35.8664 43.9523L33.2301 41.2939C33.1242 41.1945 33.0397 41.0744 32.982 40.941C32.9243 40.8077 32.8945 40.6639 32.8945 40.5186C32.8945 40.3733 32.9243 40.2295 32.982 40.0961C33.0397 39.9628 33.1242 39.8427 33.2301 39.7432L39.278 33.6954C39.3774 33.5894 39.4975 33.5049 39.6309 33.4472C39.7643 33.3895 39.908 33.3597 40.0534 33.3597C40.1987 33.3597 40.3425 33.3895 40.4758 33.4472C40.6092 33.5049 40.7293 33.5894 40.8287 33.6954L43.2656 36.1101L44.3068 35.667V31.9231C44.3068 31.6293 44.4235 31.3476 44.6312 31.1399C44.8389 30.9321 45.1207 30.8154 45.4145 30.8154H53.9656C54.2594 30.8154 54.5411 30.9321 54.7489 31.1399C54.9566 31.3476 55.0733 31.6293 55.0733 31.9231V35.4455C55.4499 35.5784 55.8044 35.7113 56.1367 35.8664L58.7064 33.2301C58.8059 33.1242 58.926 33.0397 59.0594 32.982C59.1927 32.9243 59.3365 32.8945 59.4818 32.8945C59.6271 32.8945 59.7709 32.9243 59.9043 32.982C60.0376 33.0397 60.1577 33.1242 60.2572 33.2301L66.305 39.278C66.411 39.3774 66.4954 39.4975 66.5532 39.6309C66.6109 39.7643 66.6407 39.908 66.6407 40.0534C66.6407 40.1987 66.6109 40.3425 66.5532 40.4758C66.4954 40.6092 66.411 40.7293 66.305 40.8287L63.8682 43.2656C64.0153 43.6045 64.1411 43.9522 64.2448 44.3068H67.9887C68.2824 44.3068 68.5642 44.4235 68.7719 44.6312C68.9796 44.8389 69.0963 45.1207 69.0963 45.4145V53.9656C69.0963 54.2594 68.9796 54.5411 68.7719 54.7489C68.5642 54.9566 68.2824 55.0733 67.9887 55.0733H64.6435C64.5106 55.4499 64.3777 55.8044 64.2226 56.1367L66.8589 58.7951C66.9648 58.8945 67.0493 59.0146 67.107 59.148C67.1647 59.2813 67.1945 59.4251 67.1945 59.5704C67.1945 59.7157 67.1647 59.8595 67.107 59.9929C67.0493 60.1262 66.9648 60.2463 66.8589 60.3458L60.811 66.3936C60.6039 66.5966 60.3256 66.7103 60.0356 66.7103C59.7457 66.7103 59.4673 66.5966 59.2603 66.3936L56.8234 63.9568C56.4867 64.134 56.1389 64.2894 55.7822 64.422V68.1659C55.7599 68.444 55.6334 68.7035 55.428 68.8925C55.2227 69.0814 54.9536 69.1858 54.6745 69.1849ZM47.231 66.9696H53.5669V63.558C53.5654 63.3212 53.64 63.0901 53.7795 62.8987C53.9191 62.7073 54.1163 62.5657 54.3422 62.4946C55.1113 62.263 55.8538 61.9512 56.5576 61.5642C56.7658 61.4366 57.0116 61.3846 57.2536 61.4169C57.4957 61.4492 57.7192 61.5638 57.8868 61.7414L60.1021 63.9568L64.5328 59.5261L62.0294 57.0671C61.8632 56.9074 61.7522 56.6989 61.7123 56.4719C61.6725 56.2449 61.706 56.0111 61.8079 55.8044C62.1589 55.0921 62.4479 54.3509 62.6719 53.589C62.739 53.3589 62.8789 53.1568 63.0706 53.013C63.2624 52.8692 63.4956 52.7915 63.7352 52.7915H66.881V46.5221H63.558C63.3212 46.5236 63.0901 46.449 62.8987 46.3095C62.7073 46.1699 62.5657 45.9727 62.4946 45.7468C62.2688 44.9757 61.9567 44.2325 61.5642 43.5314C61.4366 43.3232 61.3846 43.0774 61.4169 42.8354C61.4492 42.5933 61.5638 42.3697 61.7414 42.2022L63.9568 39.9869L59.5261 35.5562L57.0671 37.8823C56.9074 38.0485 56.6989 38.1596 56.4719 38.1994C56.2449 38.2393 56.0111 38.2058 55.8044 38.1039C55.0904 37.7566 54.3496 37.4676 53.589 37.2399C53.3589 37.1728 53.1568 37.0329 53.013 36.8411C52.8692 36.6494 52.7915 36.4162 52.7915 36.1765V33.0308H46.5221V36.4424C46.5236 36.6792 46.449 36.9103 46.3095 37.1017C46.1699 37.2931 45.9727 37.4347 45.7468 37.5057C44.9757 37.7315 44.2325 38.0437 43.5314 38.4362C43.321 38.556 43.077 38.6036 42.837 38.5715C42.5969 38.5395 42.3739 38.4297 42.2022 38.2589L39.9869 36.0436L35.5562 40.4743L37.9488 42.889C38.115 43.0487 38.2261 43.2571 38.2659 43.4841C38.3057 43.7112 38.2722 43.945 38.1703 44.1517C37.8193 44.864 37.5303 45.6052 37.3063 46.367C37.2392 46.5971 37.0993 46.7992 36.9076 46.943C36.7159 47.0868 36.4827 47.1646 36.243 47.1646H33.0308V53.5004H36.4424C36.6792 53.499 36.9103 53.5735 37.1017 53.7131C37.2931 53.8526 37.4347 54.0498 37.5057 54.2758C37.7419 55.0432 38.0535 55.7852 38.4362 56.4911C38.5637 56.6993 38.6158 56.9451 38.5835 57.1872C38.5512 57.4292 38.4366 57.6528 38.2589 57.8203L36.0436 60.0356L40.4743 64.4663L42.9333 62.0294C43.093 61.8632 43.3014 61.7522 43.5285 61.7123C43.7555 61.6725 43.9893 61.706 44.196 61.8079C44.9099 62.1552 45.6508 62.4441 46.4114 62.6719C46.6414 62.739 46.8435 62.8789 46.9873 63.0706C47.1311 63.2624 47.2089 63.4956 47.2089 63.7352L47.231 66.9696ZM50.0002 58.2191C48.3746 58.2191 46.7856 57.737 45.434 56.8339C44.0824 55.9308 43.029 54.6472 42.4069 53.1454C41.7849 51.6436 41.6221 49.9911 41.9392 48.3968C42.2564 46.8025 43.0391 45.338 44.1886 44.1886C45.338 43.0391 46.8025 42.2564 48.3968 41.9392C49.9911 41.6221 51.6436 41.7849 53.1454 42.4069C54.6472 43.029 55.9308 44.0824 56.8339 45.434C57.737 46.7856 58.2191 48.3746 58.2191 50.0002C58.2191 52.18 57.3532 54.2705 55.8118 55.8118C54.2705 57.3532 52.18 58.2191 50.0002 58.2191ZM50.0002 43.9966C48.8128 43.9966 47.6521 44.3487 46.6648 45.0084C45.6775 45.6681 44.908 46.6057 44.4536 47.7027C43.9992 48.7997 43.8804 50.0068 44.112 51.1714C44.3436 52.336 44.9154 53.4057 45.755 54.2453C46.5947 55.0849 47.6644 55.6567 48.829 55.8884C49.9935 56.12 51.2006 56.0011 52.2976 55.5467C53.3947 55.0923 54.3323 54.3229 54.992 53.3356C55.6516 52.3483 56.0037 51.1876 56.0037 50.0002C55.9979 48.4097 55.3635 46.8861 54.2389 45.7615C53.1143 44.6369 51.5906 44.0025 50.0002 43.9966Z" fill="#464646"/>
<path d="M49.9998 80.5717C42.89 80.573 36.0015 78.0999 30.5162 73.5766C25.0308 69.0533 21.2908 62.762 19.9378 55.7822C19.8855 55.4917 19.949 55.1924 20.1146 54.9481C20.2802 54.7039 20.5348 54.5341 20.8239 54.4751C21.1202 54.423 21.4251 54.4888 21.6735 54.6585C21.9219 54.8283 22.094 55.0884 22.1531 55.3834C23.4001 61.8881 26.8847 67.7512 32.0024 71.9554C37.1202 76.1596 43.5481 78.4398 50.1712 78.4003C56.7943 78.3608 63.1946 76.0042 68.2618 71.7393C73.3291 67.4744 76.7436 61.5702 77.913 55.0511C77.9668 54.7637 78.1321 54.5093 78.3728 54.3433C78.6135 54.1773 78.9101 54.1132 79.1979 54.165C79.4866 54.2191 79.7429 54.3834 79.9124 54.6233C80.082 54.8632 80.1515 55.1596 80.1061 55.4499C78.8367 62.506 75.1243 68.8902 69.6196 73.4835C64.1149 78.0768 57.1692 80.5861 49.9998 80.5717Z" fill="#464646"/>
<path d="M84.9134 56.6238L72.8398 55.4276L79.4637 50L84.9134 56.6238Z" fill="#464646"/>
<path d="M78.9765 45.7683C78.7191 45.7632 78.4713 45.6704 78.2739 45.5052C78.0765 45.34 77.9414 45.1124 77.891 44.86C76.7139 38.4198 73.3445 32.5853 68.3548 28.3468C63.3651 24.1083 57.0624 21.7269 50.5166 21.6069C43.9708 21.4869 37.5851 23.6356 32.4434 27.6884C27.3017 31.7411 23.7207 37.4482 22.3083 43.841C22.2769 43.9838 22.2175 44.1191 22.1336 44.2389C22.0496 44.3587 21.9427 44.4606 21.8192 44.5389C21.6956 44.6172 21.5577 44.6702 21.4135 44.6949C21.2694 44.7196 21.1217 44.7155 20.9791 44.6828C20.6964 44.6093 20.4522 44.4311 20.296 44.1843C20.1397 43.9375 20.083 43.6406 20.1373 43.3536C21.6723 36.4684 25.5395 30.3252 31.0841 25.9641C36.6287 21.6029 43.5101 19.2919 50.5631 19.4222C57.6162 19.5525 64.4075 22.1162 69.7872 26.6792C75.167 31.2422 78.8046 37.524 80.0841 44.4613C80.1096 44.6053 80.1062 44.753 80.0742 44.8958C80.0422 45.0385 79.9823 45.1736 79.8978 45.293C79.8134 45.4125 79.7061 45.514 79.5822 45.5918C79.4582 45.6696 79.3202 45.722 79.1759 45.7462L78.9765 45.7683Z" fill="#464646"/>
<path d="M15.3965 41.958L27.3814 43.6195L20.5582 48.8034L15.3965 41.958Z" fill="#464646"/>
</g>
<defs>
<clipPath id="clip0_201_517">
<rect width="100" height="100" fill="white"/>
</clipPath>
</defs>
</svg>
