<?xml version="1.0" encoding="UTF-8"?>
<!DOCTYPE svg PUBLIC "-//W3C//DTD SVG 1.1//EN" "http://www.w3.org/Graphics/SVG/1.1/DTD/svg11.dtd">
<svg xmlns="http://www.w3.org/2000/svg" version="1.1" width="160px" height="160px" style="shape-rendering:geometricPrecision; text-rendering:geometricPrecision; image-rendering:optimizeQuality; fill-rule:evenodd; clip-rule:evenodd" xmlns:xlink="http://www.w3.org/1999/xlink">
<g><path style="opacity:0.749" fill="A3195B" d="M 78.5,0.5 C 79.4959,0.414228 80.3292,0.747561 81,1.5C 81.6667,12.8333 81.6667,24.1667 81,35.5C 80,36.8333 79,36.8333 78,35.5C 77.1894,23.7574 77.3561,12.0907 78.5,0.5 Z"/></g>
<g><path style="opacity:0.786" fill="#A3195B" d="M 23.5,23.5 C 24.552,23.3505 25.552,23.5172 26.5,24C 34,31.5 41.5,39 49,46.5C 49.5,48.6667 48.6667,49.5 46.5,49C 39,41.5 31.5,34 24,26.5C 23.5172,25.552 23.3505,24.552 23.5,23.5 Z"/></g>
<g><path style="opacity:0.808" fill="#A3195B" d="M 132.5,23.5 C 133.5,23.5 134.5,23.5 135.5,23.5C 135.649,24.552 135.483,25.552 135,26.5C 127.319,34.3479 119.486,42.0146 111.5,49.5C 109.899,48.9653 109.399,47.9653 110,46.5C 117.702,38.9649 125.202,31.2983 132.5,23.5 Z"/></g>
<g><path style="opacity:0.985" fill="#A3195B" d="M 75.5,44.5 C 98.9292,44.5977 111.929,56.2644 114.5,79.5C 112.5,100.833 100.833,112.5 79.5,114.5C 58.1667,112.5 46.5,100.833 44.5,79.5C 46.0975,59.9115 56.4308,48.2448 75.5,44.5 Z"/></g>
<g><path style="opacity:1" fill="#A3195B" d="M 77.5,68.5 C 77.5,69.5 77.5,70.5 77.5,71.5C 78.5,71.5 79.5,71.5 80.5,71.5C 80.5,70.5 80.5,69.5 80.5,68.5C 81.4345,69.5676 81.7678,70.901 81.5,72.5C 79.8333,72.5 78.1667,72.5 76.5,72.5C 76.2322,70.901 76.5655,69.5676 77.5,68.5 Z"/></g>
<g><path style="opacity:1" fill="#fefffe" d="M 77.5,68.5 C 78.5,68.5 79.5,68.5 80.5,68.5C 80.5,69.5 80.5,70.5 80.5,71.5C 79.5,71.5 78.5,71.5 77.5,71.5C 77.5,70.5 77.5,69.5 77.5,68.5 Z"/></g>
<g><path style="opacity:1" fill="#A3195B" d="M 80.5,89.5 C 80.5,84.5 80.5,79.5 80.5,74.5C 79.5,74.5 78.5,74.5 77.5,74.5C 77.5,79.5 77.5,84.5 77.5,89.5C 76.5119,84.3595 76.1786,79.0262 76.5,73.5C 78.1667,73.5 79.8333,73.5 81.5,73.5C 81.8214,79.0262 81.4881,84.3595 80.5,89.5 Z"/></g>
<g><path style="opacity:1" fill="#fefffe" d="M 80.5,89.5 C 79.5,89.5 78.5,89.5 77.5,89.5C 77.5,84.5 77.5,79.5 77.5,74.5C 78.5,74.5 79.5,74.5 80.5,74.5C 80.5,79.5 80.5,84.5 80.5,89.5 Z"/></g>
<g><path style="opacity:0.752" fill="#A3195B" d="M 1.5,77.5 C 12.8382,77.3335 24.1716,77.5001 35.5,78C 36.8333,79 36.8333,80 35.5,81C 24.1667,81.6667 12.8333,81.6667 1.5,81C 0.315695,79.8545 0.315695,78.6879 1.5,77.5 Z"/></g>
<g><path style="opacity:0.742" fill="#A3195B" d="M 123.5,77.5 C 134.838,77.3335 146.172,77.5001 157.5,78C 158.833,79 158.833,80 157.5,81C 146.167,81.6667 134.833,81.6667 123.5,81C 122.316,79.8545 122.316,78.6879 123.5,77.5 Z"/></g>
<g><path style="opacity:0.806" fill="#A3195B" d="M 46.5,109.5 C 48.6859,109.511 49.5192,110.511 49,112.5C 41.5,120 34,127.5 26.5,135C 25.552,135.483 24.552,135.649 23.5,135.5C 23.3505,134.448 23.5172,133.448 24,132.5C 31.7025,124.965 39.2025,117.298 46.5,109.5 Z"/></g>
<g><path style="opacity:0.79" fill="#A3195B" d="M 109.5,109.5 C 110.552,109.351 111.552,109.517 112.5,110C 120,117.5 127.5,125 135,132.5C 135.483,133.448 135.649,134.448 135.5,135.5C 134.448,135.649 133.448,135.483 132.5,135C 125,127.5 117.5,120 110,112.5C 109.517,111.552 109.351,110.552 109.5,109.5 Z"/></g>
<g><path style="opacity:0.744" fill="#A3195B" d="M 78.5,122.5 C 79.4959,122.414 80.3292,122.748 81,123.5C 81.6667,134.833 81.6667,146.167 81,157.5C 80,158.833 79,158.833 78,157.5C 77.1894,145.757 77.3561,134.091 78.5,122.5 Z"/></g>
</svg>
